<svg xmlns="http://www.w3.org/2000/svg" version="1.1" xmlns:xlink="http://www.w3.org/1999/xlink" viewBox="0 0 700 700" style="overflow: hidden; display: block;" width="700" height="700"><defs><linearGradient id="two-3" x1="350" y1="-350" x2="350" y2="350" spreadMethod="pad" gradientUnits="userSpaceOnUse"><stop offset="0%" stop-color="hsl(55, 94%, 54%)" stop-opacity="1"></stop><stop offset="100%" stop-color="hsl(290, 87%, 47%)" stop-opacity="1"></stop></linearGradient></defs><g id="two-0" transform="matrix(1 0 0 1 0 0)" opacity="1"><path transform="matrix(1 0 0 1 350 350)" id="two-217" d="M 213.175207 46.923411 C 221.762731 66.684587 235.694232 87.050987 234.677657 108.573446 C 233.790826 127.349031 221.86226 145.05464 210.933778 160.347689 C 199.988376 175.664417 187.529683 193.972622 169.578364 199.643084 C 147.56183 206.597667 121.183641 199.33784 100.376458 189.330085 C 74.221008 176.749942 63.447004 138.74017 35.945604 129.464366 C 26.905122 126.415149 14.6679 126.391941 7.172855 132.295528 C -35.958684 166.268751 7.281421 293.770077 -47.452891 289.449829 C -86.745201 286.348438 -45.393457 203.821601 -68.482378 171.877808 C -76.209533 161.187198 -90.446871 153.031249 -103.63649 152.852386 C -149.543325 152.229848 -184.488939 231.123433 -227.741988 215.728669 C -248.868688 208.209187 -257.254862 175.96586 -255.325165 153.624054 C -252.341081 119.074663 -187.22418 99.641058 -196.835046 66.321448 C -204.951919 38.18132 -259.734206 53.18793 -277.912339 30.224788 C -290.779505 13.970612 -284.013004 -11.53592 -289.609463 -31.496928 C -296.810084 -57.179538 -334.370526 -86.071659 -318.038116 -107.159518 C -283.448407 -151.82059 -178.941727 -41.79641 -147.829627 -88.946136 C -125.139511 -123.332523 -238.127451 -168.847749 -208.867214 -197.849535 C -175.899896 -230.525658 -125.980144 -103.132747 -86.781413 -127.993008 C -55.416919 -147.88471 -123.603005 -215.675361 -95.698819 -240.185923 C -80.911858 -253.174538 -56.91303 -225.665342 -37.351382 -227.833349 C -18.964707 -229.871135 -3.184825 -258.909566 13.6181 -251.171084 C 44.674599 -236.868207 29.025558 -183.147568 42.076087 -151.54437 C 47.161621 -139.229226 48.490632 -118.5339 61.610084 -116.208948 C 122.431889 -105.430463 152.113658 -274.019346 202.94774 -238.928552 C 236.95721 -215.451797 146.268091 -160.483899 159.703195 -121.403214 C 165.239842 -105.297946 188.447936 -102.061513 203.537831 -94.166629 C 227.63917 -81.557044 276.650515 -88.536915 279.195443 -61.455565 C 282.57827 -25.457878 197.277097 -35.072107 188.489361 -0.000001 C 184.236778 16.972181 206.201691 30.876309 213.175207 46.923411 Z " fill="url(#two-3)" stroke="undefined" stroke-width="1" stroke-opacity="1" fill-opacity="1" visibility="visible" stroke-linecap="butt" stroke-linejoin="miter" stroke-miterlimit="4"></path></g></svg>