<svg viewBox="0 0 1000 1000" xmlns="http://www.w3.org/2000/svg"><path d="m204.1 536.2c0 9.7-.2 18.9.1 28.1.1 4-1.3 4.9-4.9 4.7-5-.2-10-.4-14.9 0-4.3.3-5.5-1.1-5.4-5.4.2-31 .1-61.9.1-92.9v-5.2c0-13.6 0-13.6 13.9-15.7 9.5-1.4 19-2.8 28.5-1.7 25 3 39 18.9 39.4 45.1.1 5-.5 9.9-1.5 14.8-5.1 26.5-28.4 36.5-51 29.4-1.2-.4-2.5-.7-4.3-1.2zm-.1-43.6c0 6.7-.1 13.4 0 20.1 0 1.5-.5 3 2.1 3.8 18.1 5.9 28.4-1.1 29-20v-3.4c-.6-17.9-9.7-25.7-27.4-23.6-2.9.3-3.9 1.3-3.8 4.2.3 6.3.1 12.6.1 18.9zm-77.9-72.3c11.2-1.4 21.1 1.4 30.9 5.5 2.2.9 4.1 1.2 2.6 4.9-1.8 4.6-3.9 9.1-5.1 13.9-.8 3.1-3.8 2.2-6.2 1.1-8.6-3.9-17.6-4.4-26.8-3.6-5.5.5-10.7 2.2-10.9 9-.2 5.2 2.3 9.2 7.1 11.3 8.4 3.6 16.9 7 25.4 10.4 19.8 7.9 24.8 21.9 23 37.5-2 16.8-13.5 25.3-29.3 28.6-17.3 3.5-33.9 1.6-50.2-5.2-3.5-1.5-4.8-3.2-2.9-6.8.4-.7.5-1.4.8-2.1 1.9-4.5 1.9-11.5 5.7-13.1 3.2-1.4 8.6 2.8 13.2 4.2 9.6 2.8 19.4 3.1 29 .3 7.9-2.3 9.7-12.2 3.7-17.9-4.5-4.3-10.4-6-16-8.3-7.7-3-15.6-5.5-22.6-10.3-11.7-8-14.9-19.5-12.7-32.5 2-11.8 9.4-19.7 20.7-24.1 6.9-2.6 13.7-4.1 20.6-2.8zm168.7 81.8c4 12.8 13.2 16.5 24.6 16.6 7.1.1 14.1-.8 20.9-3.1 3-1 4.1-.2 4.4 2.7.2 2.1.6 4.2 1 6.2 2 11.2 2.1 11.3-9.1 13.6-7.5 1.5-15.1 2.5-22.8 2.2-28.5-1.1-45.4-19.7-43.8-48.2 1.3-23.8 13.9-39.8 34.6-43.8 24.1-4.7 44.1 9.5 47.2 33.9.6 5.1.2 10.3.5 15.4.3 4-1.6 4.6-5 4.6-15.3-.2-30.6-.1-45.8-.1zm-.1-17.1c10.4 0 20.3-.1 30.2 0 3.1 0 3.4-1.3 3-3.9-1.1-6.4-6-11.7-12.3-12.8-7.8-1.3-14.5 1.9-17.6 8.6-1.2 2.4-2 4.9-3.3 8.1zm508 17.1h-24.6c-2.8 0-4.9-.5-2.6 3.9 4.5 8.9 11.8 12 20.8 12.7 7.7.5 15.3-.3 22.6-2.8 4-1.4 5-.1 5.3 3.4.2 2.1.6 4.2 1 6.2 1.8 10 1.8 10.2-7.9 12.3-12 2.6-24.2 3.9-36.3.8-16-4.1-26.3-14.1-30.1-30.4-2.5-10.9-2.3-21.6 1.4-32.2 8.3-23.7 33.7-34.9 56.8-25.2 13.5 5.7 19.8 16.7 22 30.6 1 6.6 3 14.5-.5 19.6-2.6 3.7-10.7.9-16.4 1.1-3.9.1-7.7 0-11.5 0zm-12.3-17.1c4.6 0 9.2-.1 13.7 0 2.9.1 3.6-1 3.1-3.7-1.2-7.4-7-12.7-14.5-13.1-8.9-.4-16.9 6-18.5 14.7-.4 2 .9 2.1 2.4 2.1zm-146 20.7v25.8c0 2.2.1 4-2.9 4.5-16.6 3.2-33.3 5.4-50.1 2.2-15.5-2.9-23-12.6-22.8-28.2.2-11.1 5.7-19.2 16.2-23.3 10-4 20.6-4.5 31-2.8 4.6.7 4.9-1 4.2-4.4-1-5.3-4-9-9.5-10.2-8.6-1.9-17.2-1-25.5 1.3-4.9 1.4-6.1-.2-6.1-4.5 0-.9-.2-1.9-.4-2.8-2.1-12.3-2.2-12.4 10.1-14.3 7.9-1.2 15.9-1.9 24-1.2 20.5 1.6 30.8 12.1 31.5 32.7.5 8.4.2 16.8.3 25.2-.1 0 0 0 0 0zm-24.1 4.9v-6.9c0-1.7-.3-3-2.3-3.2-5.9-.5-11.8-1.1-17.6.7-4.8 1.5-7.2 4.8-6.9 9.9.3 5 3.3 7.6 7.9 8.5 3 .6 6.1.6 9.1.6 9.9 0 9.9-.1 9.8-9.6zm40.5-15.6c0-12.6.1-25.2 0-37.8 0-2.8.3-4.5 3.6-5.2 14.1-3 28.2-5.3 42.6-3.5 17.7 2.2 27.5 12.1 29.1 29.9 1.7 18.7.3 37.4.7 56.2.1 3-1.4 3.5-3.9 3.4-5.3-.1-10.7-.3-16 0-3.9.2-5.3-.9-5.2-5 .3-12.8.1-25.6.1-38.4 0-2.1 0-4.2-.1-6.3-.9-16.4-5.1-20-21.4-18.8-3.8.3-4.6 1.7-4.6 5.2.2 19.3 0 38.6.2 57.9 0 4.1-.7 5.9-5.3 5.5-5.1-.4-10.3-.3-15.5 0-3.6.2-4.5-1.1-4.5-4.6.3-12.9.2-25.7.2-38.5z" fill="#193b7e"/><path d="m713.5 369.8c11.8-5.5 24.5-7 37.2-8 3-.2 4.4-.4 3.2-4.3-1-3.3-1.7-7.1-.8-10.7 3-.3 4.4-2.6 6.1-4.7 5.8-7.3 10.4-15.4 17.1-22 2.7 10.1 7.8 19.6 8.2 30.2.7 21.2-8.1 38.4-23 52.8v-3.8c3.3-7.8 2.5-15.5-1.1-22.9-.1-1.2.1-2.6-1.1-3.5-.1-1.9-.5-3.6-2.2-4.7-.2-1.8 0-3.8-2.5-5.2.5 2.4.9 4.1 2.3 5.4.1 1.9.3 3.7 2.3 4.6 0 1.3-.3 2.7 1.2 3.4 1.3 7.6 1.4 15.3 1.2 23-1.7 1.4-2.1 3.4-2.4 5.5-12.5 10.8-27.1 16-43.5 16.3-9.9.2-19.9.1-29.7 2.1-.5-2.5.9-4.4 2-6.3 3.4-5.7 6.8-11.3 10.3-16.9 6-9.6 11.5-19.5 15.2-30.3z" fill="#f05968"/><path d="m851.6 569.8c15.5 0 30.9.1 46.4-.1 3.5 0 4.6.5 3.9 4.5-2.8 15-5.2 30.1-7.5 45.2-.5 3.6-2 4.6-5.6 4.5-31.1-.1-62.3-.2-93.4 0-4.2 0-5.1-1-4.3-5.1 2.7-14.8 5.1-29.7 7.4-44.6.6-3.6 2.1-4.5 5.6-4.5 15.8.2 31.7.1 47.5.1zm19.1 46.6h10.3c2.7.1 2.9-1.8 3.2-3.8.5-2.9-1.7-2.4-3.3-2.5-2.5-.1-5 0-7.5 0-7.6 0-7.7-.4-5.6-7.7 1.2-4.3 4.2-2.2 6.5-2.5 3.2-.4 7.7 1.2 7.3-4.3-.4-4.8-4.6-1.1-6.8-2.2-1.6-.8-5.3 1.8-4.6-2.6.5-2.8-.6-7 4.8-6.7 3.6.3 7.3 0 10.9.1 2.8.1 2.8-1.9 3.1-3.8.5-3-1.7-2.4-3.3-2.4-5.2-.1-10.3.2-15.5-.1-3.6-.2-5.1 1-5.6 4.6-1.1 7.2-2.6 14.3-4.1 21.4-2.4 12.6-2.5 12.6 10.2 12.5zm-26.1-38.4c-4.6 0-9.2.1-13.8 0-3.2-.1-3 2.4-3.2 4.3-.3 2.7 1.9 1.7 3.2 1.8 1.7.2 3.5.2 5.1 0 3.5-.4 3.7 1.1 3 4-1.7 7.8-3.2 15.7-4.6 23.6-.3 1.5-2.2 3.9 1 4.5 2.6.5 5.2.8 5.7-3.3.9-6.4 2.4-12.7 3.7-19.1 1.8-9.2 1.8-9.2 10.8-9.7.8 0 1.6.1 2.3-.1 2-.7 1.9-2.7 2-4.3.2-2.1-1.6-1.7-2.8-1.7zm-32.4 38.4c3.9 0 7.2-.2 10.4.1 3.4.3 3.7-2 3.9-4.3.3-3-2.3-1.9-3.7-2-3.4-.2-6.9-.2-10.3 0-3 .1-4.1-.4-3.3-3.9 1.8-7.8 3.3-15.7 4.6-23.6.3-1.6 2.2-4.4-1.7-4.7-2.8-.3-4.6.1-5.1 3.6-1.1 7.5-2.9 15-4.3 22.5-.7 3.9-3.1 9.1-1.4 11.4 2 2.7 7.6.5 10.9.9z" fill="#23478b"/><path d="m844.1 472c0-14.8.1-27.1-.1-39.3-.1-3.5.9-5.2 4.5-5.6 5.5-.6 11-1.4 16.4-2.6 3.8-.8 4.5.5 4.4 4-.3 5.9 0 11.9-.1 17.8-.1 2.7.8 3.7 3.6 3.6 7.1-.2 14.2.1 21.2-.1 3.8-.2 5.7.7 5.2 4.9-.5 5.1 2.1 11.7-1 14.9-3.1 3.3-9.8.7-14.8 1.1-4.5.3-10.4-2-13.2.9s-.7 8.7-.8 13.3c-.1 6.3-.2 12.6 0 18.9.4 11.4 4.9 15.5 16.3 14.8 2.7-.2 5.5-.2 7.9-1.2 5.5-2.4 6.4.7 6.8 4.9.1.8.2 1.5.3 2.3 2.2 12 2.2 12.1-9.9 14.3-7.2 1.3-14.5 1.4-21.7.1-13.6-2.3-21.8-10.9-23.8-25-2.3-14.7-.6-29.7-1.2-42zm-401.6.4c0-15.2.1-27.8-.1-40.4 0-2.6.4-4.3 3.4-4.7 6.1-.8 12.1-1.7 18.1-2.8 2.9-.5 3.7.5 3.6 3.3-.1 5.9.2 11.9-.1 17.8-.2 3.6 1.1 4.5 4.6 4.4 7.1-.3 14.1.1 21.2-.1 3.2-.1 4.5.7 4.3 4.1-.3 5.3 1.7 12.1-1 15.5-2.8 3.7-10 1.1-15.2 1.2-13.8.2-13.8.1-13.8 14 0 6.9-.2 13.8.2 20.6.6 10 4.9 13.7 14.7 13.3 3.8-.2 7.6-.7 11.3-1.8 3.2-.9 4.1 0 4.3 3 .2 2.3.8 4.5 1.2 6.8 1.8 9.4 1.8 9.4-7.8 11.8-8.1 2-16.3 2.1-24.5.7-13.2-2.3-21.2-10.5-23.4-24-2.4-15.1-.4-30.2-1-42.7zm-34.1-24.9c5.8-.1 12.5 1.2 19.1 3.4 2.6.9 3.8 1.8 2.7 4.9-1.4 4.1-2.5 8.4-3.3 12.7-.6 3-1.7 3.8-4.6 2.7-4.7-1.8-9.6-2.2-14.6-2.1-13.4.2-19.7 9.9-21.1 20.7-.8 5.6-.3 11.3 2.2 16.9 4.1 8.9 11.2 12 20.3 12.1 5.8.1 11.5-.6 16.9-2.4 2.5-.8 3.5-.4 3.8 2.1.4 3.2 1 6.4 1.5 9.6 1.4 8.3 1.4 8.3-7 10.3-9.8 2.3-19.7 2.7-29.6.8-19.8-3.9-30.8-17.6-33-40.5-2.9-29.1 16.9-51.3 46.7-51.2zm103.1 48.3v-37.2c0-2.5.3-4.2 3.2-5.1 16.1-5 32.4-7.2 49.1-3.6 4.1.9 5.4 2.3 4.1 6.5-1.4 4.7-.6 11-3.5 14.2-3 3.3-8.7-.8-13.4-1.1-14-.7-14.4-.4-14.4 13.1 0 16.8-.1 33.6.1 50.4.1 4.1-1.2 5.3-5.1 5.1-4.8-.3-9.6-.3-14.3 0-4.3.3-6-.7-5.8-5.5.3-12.4 0-24.6 0-36.8z" fill="#193b7e"/><path d="m762.9 624.2c-15.9.1-26-11.6-23.8-27.3 2.6-18.9 17.8-30.9 35.2-27.7 3.1.6 5.9 1.7 8.4 3.5 7.9 5.7 7.6 9-.9 13.1-2 1-3.1.9-4.9-.7-6-5.5-14.5-4.6-19.6 1.7-5.6 6.8-5.6 18.4-.1 22.7 3.4 2.7 11 3 14.7.8 2.2-1.3 2.6-3.3 2.3-5.4-.3-2.3-2.4-1.1-3.7-1.4-1.5-.4-4.8 1.1-4-2.1.7-2.9-1-7.4 3.9-8.4h.6c18.3-2 18.3-2 14.9 15.5-2.4 11.2-8.7 15.6-23 15.7z" fill="#f26f2a"/><path d="m713.5 369.8c-3.6 10.8-9.1 20.6-15.1 30.2-3.5 5.6-7 11.2-10.3 16.9-1.1 1.9-2.5 3.9-2 6.3-10.7 3.3-20.8 7.4-28 17-1.9-21 22.8-58.3 55.4-70.4z" fill="#f8b39a"/><path d="m704.3 614c-1 0-1.9.1-2.9 0-2.4-.2-6.3 1.1-7-.7-1-2.8-.2-6.7 1.8-9.2 8-9.9 16.2-19.8 24.7-29.3 3.5-3.9 8.6-1.6 13-1.4 1.7.1.9 2.2.6 3.4-1.8 7.2-1.9 14.7-4.9 21.6-.7 1.6-.8 4.3 1.2 4.9 2.2.7 3.7 1.4 2.5 3.7-1.2 2.4 1 6.7-4 7-3.6.2-2.2 3.4-3 5.2-.7 1.4-.2 3.7-2.7 3.6-3-.1-6.1.7-9-.5-.3-.1-.5-1.1-.4-1.5 3-9.3-3.9-6.5-8.3-6.8zm3.6-11c10.5 1.6 10.9 1.1 11.7-13-3.9 4.3-7.5 8.3-11.7 13z" fill="#f26f2a"/><path d="m776.2 320.2c-6.6 6.6-11.3 14.7-17.1 22-1.7 2.1-3 4.4-6.1 4.7-1.1-2.6-.2-4.6 1.5-6.6 6.7-7.6 13-15.6 17.7-24.6.6-1.3 2.1-2.6 3-1.8 2 1.6 1.1 4.1 1 6.3z" fill="#f8b39a"/><path d="m772.3 315.7c-4.8 9-11 17-17.7 24.6 1.5-11.3 7.5-19.5 17.7-24.6z" fill="#f05968"/><path d="m761.4 399.4v3.8c-.4 1-1.2 1.6-2.3 1.7.3-2 .7-4 2.3-5.5z" fill="#f8b39a"/><path d="m204 492.6c0-6.3.1-12.6-.1-18.9-.1-3 1-3.9 3.8-4.2 17.7-2.1 26.8 5.6 27.4 23.6v3.4c-.6 18.9-10.9 26-29 20-2.6-.8-2.1-2.3-2.1-3.8zm90.7-7.6c1.3-3.2 2.1-5.7 3.3-8 3.2-6.7 9.9-9.9 17.6-8.6 6.2 1.1 11.2 6.3 12.3 12.8.4 2.6.1 3.9-3 3.9-9.9-.2-19.8-.1-30.2-.1zm495.7 0h-13.7c-1.4 0-2.7-.1-2.4-2.1 1.6-8.7 9.6-15.1 18.5-14.7 7.4.3 13.2 5.7 14.5 13.1.5 2.8-.2 3.8-3.1 3.7-4.7-.1-9.3 0-13.8 0zm-170.1 25.6c0 9.5 0 9.6-9.8 9.6-3 0-6.1-.1-9.1-.6-4.5-.9-7.6-3.4-7.9-8.5s2-8.4 6.9-9.9c5.8-1.8 11.7-1.2 17.6-.7 2 .2 2.4 1.5 2.3 3.2z" fill="#fefefe"/><path d="m761.5 399.5c.3-7.7.1-15.4-1.2-23 3.7 7.5 4.5 15.1 1.2 23-.1-.1 0 0 0 0zm-4.7-31c-1.5-1.3-1.9-3-2.3-5.4 2.6 1.5 2.3 3.4 2.5 5.2zm.2-.1c1.7 1.1 2.1 2.8 2.2 4.7l-.1.1c-2-.9-2.2-2.7-2.3-4.6 0-.1.2-.2.2-.2z" fill="#f8b39a"/><path d="m759.2 373c1.2.9 1 2.2 1.1 3.5-1.5-.7-1.2-2.1-1.1-3.5-.1.1 0 0 0 0z" fill="#f8b39a"/><path d="m870.7 616.4c-12.6 0-12.6 0-10.1-12.5 1.4-7.1 3-14.2 4.1-21.4.5-3.6 2.1-4.8 5.6-4.6 5.1.3 10.3 0 15.5.1 1.6 0 3.8-.6 3.3 2.4-.3 1.9-.3 3.9-3.1 3.8-3.6-.1-7.3.2-10.9-.1-5.4-.4-4.3 3.9-4.8 6.7-.7 4.4 3 1.8 4.6 2.6 2.2 1.1 6.4-2.6 6.8 2.2.4 5.5-4.1 3.9-7.3 4.3-2.2.3-5.3-1.9-6.5 2.5-2 7.3-1.9 7.7 5.6 7.7h7.5c1.6 0 3.7-.5 3.3 2.5-.3 1.9-.5 3.9-3.2 3.8zm-26.1-38.4h12.6c1.2 0 3-.4 2.8 1.7-.1 1.6 0 3.6-2 4.3-.7.2-1.5.1-2.3.1-9 .5-9 .5-10.8 9.7-1.3 6.4-2.8 12.7-3.7 19.1-.6 4.1-3.2 3.8-5.7 3.3-3.2-.6-1.3-3-1-4.5 1.4-7.9 2.9-15.8 4.6-23.6.6-2.9.4-4.4-3-4-1.7.2-3.4.2-5.1 0-1.3-.1-3.5.8-3.2-1.8.2-1.9 0-4.4 3.2-4.3 4.4.1 9 0 13.6 0z" fill="#fefefe"/></svg>