<svg xmlns="http://www.w3.org/2000/svg" viewBox="0 0 500 293"><g fill="none" stroke-width="2"><path stroke="#90cbea" d="m205.35 74.26-16.78 17.31a1.05 1 70.3 0 0-.28.63q-1.01 14.78-.14 29.81" vector-effect="non-scaling-stroke"/><path stroke="#f9b591" d="M188.15 122.01q-1.22 5.31 2.6 9.24 14.87 15.33 25.25 25.54" vector-effect="non-scaling-stroke"/><path stroke="#fdd28d" d="M216 156.79q7.38 7.6 14.99 14.99c2.49 2.42 4.46 2.68 7.76 2.71q15.51.13 25-.34" vector-effect="non-scaling-stroke"/><path stroke="#83b2d8" d="M263.75 174.15q4.28 1.04 7.25-1.9 10.02-9.88 24.87-25.5" vector-effect="non-scaling-stroke"/><path stroke="#8cc4e4" d="m295.87 146.75 15.46-15.89" vector-effect="non-scaling-stroke"/><path stroke="#96d4f0" d="M311.33 130.86q2.82-2.79 2.92-5.86.33-9.87-.29-29.25" vector-effect="non-scaling-stroke"/><path stroke="#f9b591" d="M313.96 95.75q.66-3.35-2.02-6.19-10.25-10.85-21.32-21.73" vector-effect="non-scaling-stroke"/><path stroke="#fdd28d" d="M290.62 67.83q-9.26-9.39-18.95-19.08c-2.2-2.21-4.47-3.07-7.42-3.06q-13.13.02-26.25.1" vector-effect="non-scaling-stroke"/><path stroke="#83b2d8" d="M238 45.79q-3.91-.78-6.72 1.99-13.12 12.94-25.93 26.48" vector-effect="non-scaling-stroke"/><path stroke="#818565" d="M238 45.79q4.57 2.25 6.43 7.04 4 10.3 6.97 20.86" vector-effect="non-scaling-stroke"/><path stroke="#83b2d8" d="M251.4 73.69q-4.02 11.85-9.17 23.39" vector-effect="non-scaling-stroke"/><path stroke="#147dc2" d="M242.23 97.08q-12.41-7.46-24.46-14.61-6.33-3.75-12.42-8.21" vector-effect="non-scaling-stroke"/><path stroke="#8a807b" d="M214.5 109.96q-10.65 3.12-20.79 7.61c-2.33 1.03-3.6 2.81-5.56 4.44" vector-effect="non-scaling-stroke"/><path stroke="#96d4f0" d="m286.5 110.04-5.29 2.46" vector-effect="non-scaling-stroke"/><path stroke="#8cc4e4" d="M281.21 112.5c-8.03 2.38-18.43 4.89-22.21 12.46" vector-effect="non-scaling-stroke"/><path stroke="#83b2d8" d="m259 124.96-8.17 21.07" vector-effect="non-scaling-stroke"/><path stroke="#fdd28d" d="M250.83 146.03q-3.55-9.56-6.73-18.84-1.84-5.38-6.56-8.44" vector-effect="non-scaling-stroke"/><path stroke="#f9b591" d="M237.54 118.75q-11.11-5.46-23.04-8.79" vector-effect="non-scaling-stroke"/><path stroke="#90cbea" d="M214.5 109.96c8.52-2.9 22.02-6.03 27.73-12.88" vector-effect="non-scaling-stroke"/><path stroke="#f7881e" d="M290.62 67.83q-8.05 10.14-13.47 21.82c-2.26 4.86-5.82 8.7-7.9 13.89" vector-effect="non-scaling-stroke"/><path stroke="#fdd28d" d="M269.25 103.54q-8.62-2.89-11.57-11.52-3.13-9.14-6.28-18.33" vector-effect="non-scaling-stroke"/><path stroke="#f7881e" d="m237.54 118.75-5.63 10.78a.98.98 0 0 1-.59.49c-.88.27-9.71 15.73-11.19 17.92a.28.21 48.2 0 1-.41-.08q-.1-.17-.29.32-1.62 4.34-3.43 8.61" vector-effect="non-scaling-stroke"/><path stroke="#0f76bd" d="M295.87 146.75c-4.02-2.96-8.6-4.47-12.55-7.2-4.06-2.81-8.43-5.02-12.48-7.78q-5.66-3.84-11.84-6.81" vector-effect="non-scaling-stroke"/><path stroke="#908a81" d="M313.96 95.75q-1.52 4.58-5.52 6.44-9.73 4.51-21.94 7.85" vector-effect="non-scaling-stroke"/><path stroke="#f9b591" d="m286.5 110.04-17.25-6.5" vector-effect="non-scaling-stroke"/><path stroke="#2399d5" d="M311.33 130.86q-6.59-1.7-12.26-5.17-1.04-.63-2.89-1.48c-2.45-1.11-5.1-3.49-6.78-4.45-2.7-1.53-8.94-3.45-8.19-7.26" vector-effect="non-scaling-stroke"/><path stroke="#818565" d="M250.83 146.03q2.22 7.61 5.06 15.18c2.05 5.47 2.9 9.11 7.86 12.94" vector-effect="non-scaling-stroke"/><path stroke="gray" d="M149.26 241.29c-3 7.51-15.04 5.02-19.87.77a1.01 1-46.5 0 0-1.37.04l-3.35 3.36a1 1 0 0 0 .05 1.46q7.13 6.2 16.34 5.71 15.68-.84 15.43-15.67c-.14-8.48-11.27-11.43-17.51-12.95q-2.55-.62-4.72-2.08c-4.87-3.27-.11-9.68 4.76-10.15q6.17-.59 11.02 3.04a.99.99 0 0 0 1.31-.1l3.01-3.06a1 .99 44.4 0 0-.02-1.41q-2.04-2.01-4.78-3.07c-8.96-3.5-22.79-2.09-23.85 10.1-1.52 17.39 28.98 10.43 23.55 24.01m94.56-28.28a.3.3 0 0 1 .31-.3l14.06.36a.3.3 0 0 0 .31-.3v-6.01a.3.3 0 0 0-.3-.3l-36.07-.07a.3.3 0 0 0-.31.3l-.09 5.75a.3.3 0 0 0 .3.31h14.2a.3.3 0 0 1 .3.3l-.09 39.4a.3.3 0 0 0 .3.3h6.52a.3.3 0 0 0 .3-.3l.26-39.44M171 225.25h4.25a1 1 0 0 0 1-1V221a1 1 0 0 0-1-1h-4.48a1 1 0 0 1-1-1.03l.27-7.68a.99.99 0 0 0-1.39-.95l-4.75 2.05a1.01 1.01 0 0 0-.6.91q-.12 12.25-.28 24.51c-.12 9.17 1.06 16.63 12.41 14.62a1 1 0 0 0 .82-.88l.4-3.87a1 1 0 0 0-1.07-1.1l-3.1.26q-2.77.22-2.72-3.03l.24-17.57a1.01 1-89.4 0 1 1-.99m29.34 7.45q-4.56.08-9.04.28c-6.92.31-10.87 5.15-9.78 11.87 1.89 11.55 18.43 8.05 25.72 5.47a1.01 1 81.1 0 0 .66-.92q.26-10.11-.07-20.21c-.32-9.76-10.14-11.16-17.59-9.91q-4.02.68-6.97 3.62a.99.99 0 0 0 .03 1.43l3.05 2.86a1 1 0 0 0 1.34.03c3.2-2.75 10.87-4.41 13.02.54q.83 1.89.61 4.04a1.01 1 2.3 0 1-.98.9" vector-effect="non-scaling-stroke"/><path stroke="gray" d="M215.2 251.75a1 1 0 0 0 1 1h4.55a1.01 1-89.7 0 0 1-1l.01-24.81a.99.99 0 0 1 .93-.99l7.13-.53a1.01 1-2.2 0 0 .93-1v-4.17a1 1 0 0 0-.97-1q-7.11-.25-13.83 2.08a1 .99-9.5 0 0-.68.94l-.07 29.48m51.2-17.81q-.32 8.89-.11 17.83a1 .99-.3 0 0 .99.97l4.61.04a1 1 0 0 0 1-1l.15-24.64a1.01 1.01 0 0 1 .78-.97c5.25-1.19 12.27-1.75 12.4 5.9q.16 9.77-.04 19.62a1 1 0 0 0 .97 1.02l4.56.17a1 1 0 0 0 1.04-1v-23.56a1 1 0 0 1 .49-.86q2.87-1.72 6.26-1.94c5.71-.38 6.42 3.22 6.47 8.08q.1 9.29-.03 18.64a1 1 0 0 0 1 1.01h4.53a1 1 0 0 0 1-.96q.68-15.12.19-22.48c-.88-13.28-13.71-11.48-22.28-7.52a1.01 1-35.9 0 1-1.1-.17c-5.33-4.88-15.62-2.49-22.16-.47a1.02 1.01-9.6 0 0-.71.99q.19 5.71-.01 11.3m-7.946-14.096a.31.31 0 0 0-.308-.312l-6.08-.043a.31.31 0 0 0-.312.308l-.228 32.6a.31.31 0 0 0 .308.311l6.08.043a.31.31 0 0 0 .312-.308l.228-32.6m68.206 24.477q-.63-1.84-.33-3.84a1 .99-83.5 0 1 1.06-.85q6.08.47 10.87-.37c11.64-2.05 10.43-19.42-3.29-19.72-7.67-.17-15.42 2.25-15.52 11.45q-.12 10.22.14 12.68c.99 9.64 10.61 10.8 18.08 9.41q3.9-.71 6.54-3.66a1 1 0 0 0-.07-1.41l-3.05-2.77a1.01 1 45.7 0 0-1.33-.02q-4.69 4.06-10.32 1.86-2.12-.83-2.78-2.76m26.28-19.88q-3.48 5.27-.4 10.34c2.55 4.21 7.63 4.29 11.93 4.65 4.08.34 7.86 1.81 4.89 6.69a.93.92 3.9 0 1-.46.4q-7.88 3.42-14.3-1.67a1.01 1.01 0 0 0-1.35.1l-3.07 3.21a1 .99 40.2 0 0 .13 1.5q7.6 5.55 17.21 3.66 9.67-1.9 9.42-10.64c-.23-8.46-7.28-8.67-13.64-9.37-3.06-.34-7.33-1.7-4.96-5.56 2.39-3.89 9.46-2.26 12.58-.37a1 1 0 0 0 1.22-.15l2.97-2.96a1.01 1-51.3 0 0-.17-1.56q-5.1-3.19-10.95-3.04c-4.34.11-8.64 1.11-11.05 4.77m-163.35 21.7q5.43 1.58 10.9.1a1 .99 83.1 0 0 .74-.95l.07-6.01a1.01 1 .9 0 0-.99-1.01q-3.04-.05-6.09-.02c-4.83.05-7.49 2.15-5.27 7.33a1.01 1 86.1 0 0 .64.56" vector-effect="non-scaling-stroke"/><path stroke="gray" d="M326.36 230.09q-.21 1.55-.12 3.18a1 1 0 0 0 .93.94q4.89.32 9.73-.38a1.04 1.01 18 0 0 .55-.27c8.19-7.77-9.9-11.95-11.09-3.47" vector-effect="non-scaling-stroke"/></g><path fill="#fff" d="M0 0h500v293H0V0Zm205.35 74.26-16.78 17.31a1.05 1 70.3 0 0-.28.63q-1.01 14.78-.14 29.81-1.22 5.31 2.6 9.24 14.87 15.33 25.25 25.54 7.38 7.6 14.99 14.99c2.49 2.42 4.46 2.68 7.76 2.71q15.51.13 25-.34 4.28 1.04 7.25-1.9 10.02-9.88 24.87-25.5l15.46-15.89q2.82-2.79 2.92-5.86.33-9.87-.29-29.25.66-3.35-2.02-6.19-10.25-10.85-21.32-21.73-9.26-9.39-18.95-19.08c-2.2-2.21-4.47-3.07-7.42-3.06q-13.13.02-26.25.1-3.91-.78-6.72 1.99-13.12 12.94-25.93 26.48Zm-56.09 167.03c-3 7.51-15.04 5.02-19.87.77a1.01 1-46.5 0 0-1.37.04l-3.35 3.36a1 1 0 0 0 .05 1.46q7.13 6.2 16.34 5.71 15.68-.84 15.43-15.67c-.14-8.48-11.27-11.43-17.51-12.95q-2.55-.62-4.72-2.08c-4.87-3.27-.11-9.68 4.76-10.15q6.17-.59 11.02 3.04a.99.99 0 0 0 1.31-.1l3.01-3.06a1 .99 44.4 0 0-.02-1.41q-2.04-2.01-4.78-3.07c-8.96-3.5-22.79-2.09-23.85 10.1-1.52 17.39 28.98 10.43 23.55 24.01Zm94.56-28.28a.3.3 0 0 1 .31-.3l14.06.36a.3.3 0 0 0 .31-.3v-6.01a.3.3 0 0 0-.3-.3l-36.07-.07a.3.3 0 0 0-.31.3l-.09 5.75a.3.3 0 0 0 .3.31h14.2a.3.3 0 0 1 .3.3l-.09 39.4a.3.3 0 0 0 .3.3h6.52a.3.3 0 0 0 .3-.3l.26-39.44ZM171 225.25h4.25a1 1 0 0 0 1-1V221a1 1 0 0 0-1-1h-4.48a1 1 0 0 1-1-1.03l.27-7.68a.99.99 0 0 0-1.39-.95l-4.75 2.05a1.01 1.01 0 0 0-.6.91q-.12 12.25-.28 24.51c-.12 9.17 1.06 16.63 12.41 14.62a1 1 0 0 0 .82-.88l.4-3.87a1 1 0 0 0-1.07-1.1l-3.1.26q-2.77.22-2.72-3.03l.24-17.57a1.01 1-89.4 0 1 1-.99Zm29.34 7.45q-4.56.08-9.04.28c-6.92.31-10.87 5.15-9.78 11.87 1.89 11.55 18.43 8.05 25.72 5.47a1.01 1 81.1 0 0 .66-.92q.26-10.11-.07-20.21c-.32-9.76-10.14-11.16-17.59-9.91q-4.02.68-6.97 3.62a.99.99 0 0 0 .03 1.43l3.05 2.86a1 1 0 0 0 1.34.03c3.2-2.75 10.87-4.41 13.02.54q.83 1.89.61 4.04a1.01 1 2.3 0 1-.98.9Zm14.86 19.05a1 1 0 0 0 1 1h4.55a1.01 1-89.7 0 0 1-1l.01-24.81a.99.99 0 0 1 .93-.99l7.13-.53a1.01 1-2.2 0 0 .93-1v-4.17a1 1 0 0 0-.97-1q-7.11-.25-13.83 2.08a1 .99-9.5 0 0-.68.94l-.07 29.48Zm51.2-17.81q-.32 8.89-.11 17.83a1 .99-.3 0 0 .99.97l4.61.04a1 1 0 0 0 1-1l.15-24.64a1.01 1.01 0 0 1 .78-.97c5.25-1.19 12.27-1.75 12.4 5.9q.16 9.77-.04 19.62a1 1 0 0 0 .97 1.02l4.56.17a1 1 0 0 0 1.04-1v-23.56a1 1 0 0 1 .49-.86q2.87-1.72 6.26-1.94c5.71-.38 6.42 3.22 6.47 8.08q.1 9.29-.03 18.64a1 1 0 0 0 1 1.01h4.53a1 1 0 0 0 1-.96q.68-15.12.19-22.48c-.88-13.28-13.71-11.48-22.28-7.52a1.01 1-35.9 0 1-1.1-.17c-5.33-4.88-15.62-2.49-22.16-.47a1.02 1.01-9.6 0 0-.71.99q.19 5.71-.01 11.3Zm-7.946-14.096a.31.31 0 0 0-.308-.312l-6.08-.043a.31.31 0 0 0-.312.308l-.228 32.6a.31.31 0 0 0 .308.311l6.08.043a.31.31 0 0 0 .312-.308l.228-32.6Zm68.206 24.476q-.63-1.84-.33-3.84a1 .99-83.5 0 1 1.06-.85q6.08.47 10.87-.37c11.64-2.05 10.43-19.42-3.29-19.72-7.67-.17-15.42 2.25-15.52 11.45q-.12 10.22.14 12.68c.99 9.64 10.61 10.8 18.08 9.41q3.9-.71 6.54-3.66a1 1 0 0 0-.07-1.41l-3.05-2.77a1.01 1 45.7 0 0-1.33-.02q-4.69 4.06-10.32 1.86-2.12-.83-2.78-2.76Zm26.28-19.88q-3.48 5.27-.4 10.34c2.55 4.21 7.63 4.29 11.93 4.65 4.08.34 7.86 1.81 4.89 6.69a.93.92 3.9 0 1-.46.4q-7.88 3.42-14.3-1.67a1.01 1.01 0 0 0-1.35.1l-3.07 3.21a1 .99 40.2 0 0 .13 1.5q7.6 5.55 17.21 3.66 9.67-1.9 9.42-10.64c-.23-8.46-7.28-8.67-13.64-9.37-3.06-.34-7.33-1.7-4.96-5.56 2.39-3.89 9.46-2.26 12.58-.37a1 1 0 0 0 1.22-.15l2.97-2.96a1.01 1-51.3 0 0-.17-1.56q-5.1-3.19-10.95-3.04c-4.34.11-8.64 1.11-11.05 4.77Z"/><path fill="#0664b0" d="M238 45.79q4.57 2.25 6.43 7.04 4 10.3 6.97 20.86-4.02 11.85-9.17 23.39-12.41-7.46-24.46-14.61-6.33-3.75-12.42-8.21 12.81-13.54 25.93-26.48 2.81-2.77 6.72-1.99Z"/><path fill="#fba51a" d="M290.62 67.83q-8.05 10.14-13.47 21.82c-2.26 4.86-5.82 8.7-7.9 13.89q-8.62-2.89-11.57-11.52-3.13-9.14-6.28-18.33-2.97-10.56-6.97-20.86-1.86-4.79-6.43-7.04 13.12-.08 26.25-.1c2.95-.01 5.22.85 7.42 3.06q9.69 9.69 18.95 19.08Z"/><path fill="#f26a22" d="M290.62 67.83q11.07 10.88 21.32 21.73 2.68 2.84 2.02 6.19-1.52 4.58-5.52 6.44-9.73 4.51-21.94 7.85l-17.25-6.5c2.08-5.19 5.64-9.03 7.9-13.89q5.42-11.68 13.47-21.82Z"/><path fill="#fff" d="M251.4 73.69q3.15 9.19 6.28 18.33 2.95 8.63 11.57 11.52l17.25 6.5-5.29 2.46c-8.03 2.38-18.43 4.89-22.21 12.46l-8.17 21.07q-3.55-9.56-6.73-18.84-1.84-5.38-6.56-8.44-11.11-5.46-23.04-8.79c8.52-2.9 22.02-6.03 27.73-12.88q5.15-11.54 9.17-23.39Z"/><path fill="#2196d4" d="M205.35 74.26q6.09 4.46 12.42 8.21 12.05 7.15 24.46 14.61c-5.71 6.85-19.21 9.98-27.73 12.88q-10.65 3.12-20.79 7.61c-2.33 1.03-3.6 2.81-5.56 4.44q-.87-15.03.14-29.81a1.05 1 70.3 0 1 .28-.63l16.78-17.31Z"/><path fill="#2da9e0" d="M313.96 95.75q.62 19.38.29 29.25-.1 3.07-2.92 5.86-6.59-1.7-12.26-5.17-1.04-.63-2.89-1.48c-2.45-1.11-5.1-3.49-6.78-4.45-2.7-1.53-8.94-3.45-8.19-7.26l5.29-2.46q12.21-3.34 21.94-7.85 4-1.86 5.52-6.44Z"/><path fill="#f26a22" d="M214.5 109.96q11.93 3.33 23.04 8.79l-5.63 10.78a.98.98 0 0 1-.59.49c-.88.27-9.71 15.73-11.19 17.92a.28.21 48.2 0 1-.41-.08q-.1-.17-.29.32-1.62 4.34-3.43 8.61-10.38-10.21-25.25-25.54-3.82-3.93-2.6-9.24c1.96-1.63 3.23-3.41 5.56-4.44q10.14-4.49 20.79-7.61Z"/><path fill="#1888c9" d="M281.21 112.5c-.75 3.81 5.49 5.73 8.19 7.26 1.68.96 4.33 3.34 6.78 4.45q1.85.85 2.89 1.48 5.67 3.47 12.26 5.17l-15.46 15.89c-4.02-2.96-8.6-4.47-12.55-7.2-4.06-2.81-8.43-5.02-12.48-7.78q-5.66-3.84-11.84-6.81c3.78-7.57 14.18-10.08 22.21-12.46Z"/><path fill="#fba51a" d="M237.54 118.75q4.72 3.06 6.56 8.44 3.18 9.28 6.73 18.84 2.22 7.61 5.06 15.18c2.05 5.47 2.9 9.11 7.86 12.94q-9.49.47-25 .34c-3.3-.03-5.27-.29-7.76-2.71q-7.61-7.39-14.99-14.99 1.81-4.27 3.43-8.61.19-.49.29-.32a.28.21 48.2 0 0 .41.08c1.48-2.19 10.31-17.65 11.19-17.92a.98.98 0 0 0 .59-.49l5.63-10.78Z"/><path fill="#0664b0" d="M259 124.96q6.18 2.97 11.84 6.81c4.05 2.76 8.42 4.97 12.48 7.78 3.95 2.73 8.53 4.24 12.55 7.2q-14.85 15.62-24.87 25.5-2.97 2.94-7.25 1.9c-4.96-3.83-5.81-7.47-7.86-12.94q-2.84-7.57-5.06-15.18l8.17-21.07Z"/><path d="M129.39 242.06c4.83 4.25 16.87 6.74 19.87-.77 5.43-13.58-25.07-6.62-23.55-24.01 1.06-12.19 14.89-13.6 23.85-10.1q2.74 1.06 4.78 3.07a1 .99 44.4 0 1 .02 1.41l-3.01 3.06a.99.99 0 0 1-1.31.1q-4.85-3.63-11.02-3.04c-4.87.47-9.63 6.88-4.76 10.15q2.17 1.46 4.72 2.08c6.24 1.52 17.37 4.47 17.51 12.95q.25 14.83-15.43 15.67-9.21.49-16.34-5.71a1 1 0 0 1-.05-1.46l3.35-3.36a1.01 1-46.5 0 1 1.37-.04Zm114.43-29.05-.26 39.44a.3.3 0 0 1-.3.3h-6.52a.3.3 0 0 1-.3-.3l.09-39.4a.3.3 0 0 0-.3-.3h-14.2a.3.3 0 0 1-.3-.31l.09-5.75a.3.3 0 0 1 .31-.3l36.07.07a.3.3 0 0 1 .3.3v6.01a.3.3 0 0 1-.31.3l-14.06-.36a.3.3 0 0 0-.31.3ZM170 226.24l-.24 17.57q-.05 3.25 2.72 3.03l3.1-.26a1 1 0 0 1 1.07 1.1l-.4 3.87a1 1 0 0 1-.82.88c-11.35 2.01-12.53-5.45-12.41-14.62q.16-12.26.28-24.51a1.01 1.01 0 0 1 .6-.91l4.75-2.05a.99.99 0 0 1 1.39.95l-.27 7.68a1 1 0 0 0 1 1.03h4.48a1 1 0 0 1 1 1v3.25a1 1 0 0 1-1 1H171a1.01 1-89.4 0 0-1 .99Zm31.32 5.56q.22-2.15-.61-4.04c-2.15-4.95-9.82-3.29-13.02-.54a1 1 0 0 1-1.34-.03l-3.05-2.86a.99.99 0 0 1-.03-1.43q2.95-2.94 6.97-3.62c7.45-1.25 17.27.15 17.59 9.91q.33 10.1.07 20.21a1.01 1 81.1 0 1-.66.92c-7.29 2.58-23.83 6.08-25.72-5.47-1.09-6.72 2.86-11.56 9.78-11.87q4.48-.2 9.04-.28a1.01 1 2.3 0 0 .98-.9Zm-11.73 14.34q5.43 1.58 10.9.1a1 .99 83.1 0 0 .74-.95l.07-6.01a1.01 1 .9 0 0-.99-1.01q-3.04-.05-6.09-.02c-4.83.05-7.49 2.15-5.27 7.33a1.01 1 86.1 0 0 .64.56Z"/><path d="m215.2 251.75.07-29.48a1 .99-9.5 0 1 .68-.94q6.72-2.33 13.83-2.08a1 1 0 0 1 .97 1v4.17a1.01 1-2.2 0 1-.93 1l-7.13.53a.99.99 0 0 0-.93.99l-.01 24.81a1.01 1-89.7 0 1-1 1h-4.55a1 1 0 0 1-1-1Zm51.2-17.81q.2-5.59.01-11.3a1.02 1.01-9.6 0 1 .71-.99c6.54-2.02 16.83-4.41 22.16.47a1.01 1-35.9 0 0 1.1.17c8.57-3.96 21.4-5.76 22.28 7.52q.49 7.36-.19 22.48a1 1 0 0 1-1 .96h-4.53a1 1 0 0 1-1-1.01q.13-9.35.03-18.64c-.05-4.86-.76-8.46-6.47-8.08q-3.39.22-6.26 1.94a1 1 0 0 0-.49.86v23.56a1 1 0 0 1-1.04 1l-4.56-.17a1 1 0 0 1-.97-1.02q.2-9.85.04-19.62c-.13-7.65-7.15-7.09-12.4-5.9a1.01 1.01 0 0 0-.78.97l-.15 24.64a1 1 0 0 1-1 1l-4.61-.04a1 .99-.3 0 1-.99-.97q-.21-8.94.11-17.83Z"/><rect width="6.7" height="33.22" x="-3.35" y="-16.61" rx=".31" transform="rotate(.4 -33694.066 36642.539)"/><path d="M329.44 247.08q5.63 2.2 10.32-1.86a1.01 1 45.7 0 1 1.33.02l3.05 2.77a1 1 0 0 1 .07 1.41q-2.64 2.95-6.54 3.66c-7.47 1.39-17.09.23-18.08-9.41q-.26-2.46-.14-12.68c.1-9.2 7.85-11.62 15.52-11.45 13.72.3 14.93 17.67 3.29 19.72q-4.79.84-10.87.37a1 .99-83.5 0 0-1.06.85q-.3 2 .33 3.84.66 1.93 2.78 2.76Zm-3.08-16.99q-.21 1.55-.12 3.18a1 1 0 0 0 .93.94q4.89.32 9.73-.38a1.04 1.01 18 0 0 .55-.27c8.19-7.77-9.9-11.95-11.09-3.47Zm26.58-5.65c2.41-3.66 6.71-4.66 11.05-4.77q5.85-.15 10.95 3.04a1.01 1-51.3 0 1 .17 1.56l-2.97 2.96a1 1 0 0 1-1.22.15c-3.12-1.89-10.19-3.52-12.58.37-2.37 3.86 1.9 5.22 4.96 5.56 6.36.7 13.41.91 13.64 9.37q.25 8.74-9.42 10.64-9.61 1.89-17.21-3.66a1 .99 40.2 0 1-.13-1.5l3.07-3.21a1.01 1.01 0 0 1 1.35-.1q6.42 5.09 14.3 1.67a.93.92 3.9 0 0 .46-.4c2.97-4.88-.81-6.35-4.89-6.69-4.3-.36-9.38-.44-11.93-4.65q-3.08-5.07.4-10.34Z"/><path fill="#fff" d="M326.36 230.09c1.19-8.48 19.28-4.3 11.09 3.47a1.04 1.01 18 0 1-.55.27q-4.84.7-9.73.38a1 1 0 0 1-.93-.94q-.09-1.63.12-3.18Zm-136.77 16.05a1.01 1 86.1 0 1-.64-.56c-2.22-5.18.44-7.28 5.27-7.33q3.05-.03 6.09.02a1.01 1 .9 0 1 .99 1.01l-.07 6.01a1 .99 83.1 0 1-.74.95q-5.47 1.48-10.9-.1Z"/></svg>